# xmcd
#
# Track frame offsets:
# 150
# 17207
# 38014
# 57240
# 75247
# 99437
# 116817
# 137885
# 154652
# 172558
# 189417
# 207829
# 225071
# 237912
#
# Disc length: 3558 seconds
#
#
# Revision: 9
# Processed by: cddbd v1.5.2PL0 Copyright (c) Steve Scherf et al.
# Submitted via: FreeRIP 2.945 
#
DISCID=9d0de40e
DTITLE=Zeca Pagodinho - Participação Especial
DYEAR=2001
DGENRE=Samba
TTITLE0=Insensato Destino (Com Almir Guineto)
TTITLE1=Multirao de Amor (Com Jorge Aragao)
TTITLE2=Samba da Antiga, Sinha (Com Fundo de Quintal)
TTITLE3=Com Que Roupa (Com Caetano Veloso)
TTITLE4=Ainda e Tempo de Ser Feliz - (Com Beth Carvalho)
TTITLE5=Judia de Mim (Com Sandra de Sa)
TTITLE6=Mas Quem Disse Que Eu Te Esqueco (Com Dona Ivone Lara)
TTITLE7=Moqueca Idalina (Com Ney Lopes)
TTITLE8=Faixa Amarela (Com Dudu Nobre)
TTITLE9=Samba Approach (Com Zeca Baleiro)
TTITLE10=Choro de Alegria (Com Exaltasamba)
TTITLE11=Bagaco da Laranja (Com Jovelina Perola Negra)
TTITLE12=Abrigo de Vagabundo (Com Os Demonios da Garoa)
TTITLE13=Cavaquinho do Salgueiro, Serrinha, A Barca (Com Arlindo,Sombrinha e A.Guineto)
EXTD=
EXTT0=
EXTT1=
EXTT2=
EXTT3=
EXTT4=
EXTT5=
EXTT6=
EXTT7=
EXTT8=
EXTT9=
EXTT10=
EXTT11=
EXTT12=
EXTT13=
PLAYORDER=
